<svg xmlns="http://www.w3.org/2000/svg" viewBox="0 0 177.38 305.37">
  <defs>
    <style>
      .cls-1 {
        fill: #460c68;
      }
    </style>
  </defs>
  <title>alas_fenix</title>
  <g id="Capa_2" data-name="Capa 2">
    <g id="Capa_1-2" data-name="Capa 1">
      <path class="cls-1" d="M18.11.28C19.29-2,6.77,9.61,2.48,22.09A47.9,47.9,0,0,0,.39,30.48C-.71,38.22,0,49.69,8.79,65.77c13.56,24.94,29.05,38.66,53,70.43,12.86,17.08,19.77,33.24,22.35,41.9a74.18,74.18,0,0,1,3.22,21.24c0,13.33-3.21,23.08-2.73,22.28C89.74,213,95.28,202.11,98,190a68.47,68.47,0,0,0-2.51-38.21c-10-28.14-26.49-44.5-58.14-80C26.43,59.54,16,45.68,12.52,36.94,4.29,16.06,16.14,4.06,18.11.28"/><path class="cls-1" d="M79.65,255.18a.16.16,0,0,1-.24-.2c4.79-7.44,34.26-56.33,22-114C89.3,83.66,39.05,53.16,30.64,48.41a.32.32,0,0,1,.18-.6c9,.57,60.29,6.41,94.61,65.73,37.75,65.24-28.07,126.12-28.07,126.12Z"/><path class="cls-1" d="M47.92,305.37a.19.19,0,0,1-.13-.35c9.48-4.87,65.26-35,86.41-80.32,23.15-49.64,10.23-88.72,7.9-95.09s-.82-4.29-.82-4.29,43.4,45.12,35,87.91c-8.66,44.2-62.11,76.71-128.38,92.13"/></g></g>
</svg>
