<svg xmlns="http://www.w3.org/2000/svg" viewBox="0 0 433.27 378.27"><defs><style>.cls-1{fill:#fff;}</style></defs><title>arcenix_isotipo</title><g id="Capa_2" data-name="Capa 2"><g id="Capa_1-2" data-name="Capa 1"><path class="cls-1" d="M145.4,236.44c-.26-.64-4.87-12.41,2.27-21.7,5.88-7.65,14.91-8.31,16.24-8.38,0,0-3.13-9.21,3.92-13.44s25.46-5.57,41.85-2.45a139.44,139.44,0,0,0,26.81,2.49,13.18,13.18,0,0,0,6.74-1.91,7.86,7.86,0,0,0,4.19-6.86c.56.63,5.51,3.79,3.77,10.83-1.49,6-5.94,10.24-12.38,13.78,0,0,9.23,3.13,20.81-1.07a40.94,40.94,0,0,1-16.2,12.72s18,5.68,45.14-4.06c0,0-11.72,19.89-40.45,28.55,0,0,37.63,34.84,49,127.18,0,0-47.62-23.07-112.68,6.16,6.62-15.56,23.16-43.16,23.16-79.42a96.57,96.57,0,0,0-13.1-48.71c-6.65-10.27-18.71-25.68-31.7-26.65-9.5-.71-14.9,8.69-17.38,13"/><path class="cls-1" d="M191.44,339.47a8.28,8.28,0,1,1-8.28-8.12,8.2,8.2,0,0,1,8.28,8.13"/><path class="cls-1" d="M178.95,250.75a7.64,7.64,0,0,0-1-1.35,12.59,12.59,0,0,0-1-1.07l0,.32c-.31,9.81,1.14,26.76-3.72,41-2.6,7.62-6.82,16.76-16.68,24.22-8.86,6.7-16.84,8.29-29.22,8.52,0,0,11.89,20.13,9.61,42.37a28.28,28.28,0,0,0,3.26-2.23c4.94-4.05,24.94-19.09,38-42.16a73.46,73.46,0,0,0,.72-69.61"/><path class="cls-1" d="M274,1.45c1.17-2.24-11.35,9.33-15.63,21.81a47.9,47.9,0,0,0-2.09,8.39c-1.1,7.74-.35,19.21,8.39,35.29,13.56,24.94,29.05,38.66,53,70.43,12.86,17.08,19.77,33.24,22.35,41.9a74.18,74.18,0,0,1,3.22,21.24c0,13.33-3.21,23.08-2.73,22.28,5.13-8.61,10.66-19.52,13.36-31.61A68.47,68.47,0,0,0,351.36,153c-10-28.14-26.49-44.5-58.14-80-10.9-12.24-21.37-26.1-24.81-34.84C260.18,17.22,272,5.22,274,1.45"/><path class="cls-1" d="M335.55,256.35a.16.16,0,0,1-.24-.2c4.79-7.44,34.26-56.33,22-114-12.16-57.35-62.4-87.85-70.81-92.6a.32.32,0,0,1,.18-.6c9,.57,60.29,6.41,94.61,65.73,37.75,65.24-28.07,126.12-28.07,126.12Z"/><path class="cls-1" d="M303.82,306.54a.19.19,0,0,1-.13-.35c9.48-4.87,65.26-35,86.41-80.32,23.15-49.64,10.23-88.72,7.9-95.09s-.82-4.29-.82-4.29,43.4,45.12,35,87.91c-8.66,44.2-62.11,76.71-128.38,92.13"/><path class="cls-1" d="M159.26.28C158.09-2,170.61,9.61,174.9,22.09A47.87,47.87,0,0,1,177,30.48c1.1,7.74.35,19.21-8.39,35.29-13.56,24.94-29.05,38.65-53,70.43-12.86,17.08-19.77,33.24-22.35,41.9A74.18,74.18,0,0,0,90,199.35c0,13.33,3.21,23.08,2.73,22.28C87.64,213,82.1,202.11,79.4,190a68.47,68.47,0,0,1,2.51-38.21c10-28.14,26.49-44.5,58.14-80,10.9-12.24,21.37-26.1,24.81-34.84,8.23-20.89-3.62-32.89-5.59-36.66"/><path class="cls-1" d="M97.72,255.18A.16.16,0,0,0,98,255c-4.79-7.44-34.26-56.33-22-114,12.16-57.35,62.4-87.85,70.81-92.6a.32.32,0,0,0-.18-.6c-9,.57-60.29,6.41-94.61,65.73C14.2,178.79,80,239.67,80,239.67Z"/><path class="cls-1" d="M129.45,305.37a.19.19,0,0,0,.13-.35c-9.48-4.87-65.26-35-86.41-80.32C20,175.06,32.94,136,35.27,129.62s.82-4.29.82-4.29-43.4,45.12-35,87.91c8.66,44.2,62.11,76.71,128.38,92.13"/></g></g></svg>