<svg xmlns="http://www.w3.org/2000/svg" viewBox="0 0 433.27 491.85"><defs><style>.cls-1{fill:#fff;}</style></defs><title>Recurso 1</title><g id="Capa_2" data-name="Capa 2"><g id="Capa_1-2" data-name="Capa 1"><path class="cls-1" d="M145.4,236.44c-.26-.64-4.87-12.41,2.27-21.7,5.88-7.65,14.91-8.31,16.24-8.38,0,0-3.13-9.21,3.92-13.44s25.46-5.57,41.85-2.45a139.44,139.44,0,0,0,26.81,2.49,13.18,13.18,0,0,0,6.74-1.91,7.86,7.86,0,0,0,4.19-6.86c.56.63,5.51,3.79,3.77,10.83-1.49,6-5.94,10.24-12.38,13.78,0,0,9.23,3.13,20.81-1.07a40.94,40.94,0,0,1-16.2,12.72s18,5.68,45.14-4.06c0,0-11.72,19.89-40.45,28.55,0,0,37.63,34.84,49,127.18,0,0-47.62-23.07-112.68,6.16,6.62-15.56,23.16-43.16,23.16-79.42a96.57,96.57,0,0,0-13.1-48.71c-6.65-10.27-18.71-25.68-31.7-26.65-9.5-.71-14.9,8.69-17.38,13"/><path class="cls-1" d="M191.44,339.47a8.28,8.28,0,1,1-8.28-8.12,8.2,8.2,0,0,1,8.28,8.13"/><path class="cls-1" d="M178.95,250.75a7.64,7.64,0,0,0-1-1.35,12.59,12.59,0,0,0-1-1.07l0,.32c-.31,9.81,1.14,26.76-3.72,41-2.6,7.62-6.82,16.76-16.68,24.22-8.86,6.7-16.84,8.29-29.22,8.52,0,0,11.89,20.13,9.61,42.37a28.28,28.28,0,0,0,3.26-2.23c4.94-4.05,24.94-19.09,38-42.16a73.46,73.46,0,0,0,.72-69.61"/><path class="cls-1" d="M274,1.45c1.17-2.24-11.35,9.33-15.63,21.81a47.9,47.9,0,0,0-2.09,8.39c-1.1,7.74-.35,19.21,8.39,35.29,13.56,24.94,29.05,38.66,53,70.43,12.86,17.08,19.77,33.24,22.35,41.9a74.18,74.18,0,0,1,3.22,21.24c0,13.33-3.21,23.08-2.73,22.28,5.13-8.61,10.66-19.52,13.36-31.61A68.47,68.47,0,0,0,351.36,153c-10-28.14-26.49-44.5-58.14-80-10.9-12.24-21.37-26.1-24.81-34.84C260.18,17.22,272,5.22,274,1.45"/><path class="cls-1" d="M335.55,256.35a.16.16,0,0,1-.24-.2c4.79-7.44,34.26-56.33,22-114-12.16-57.35-62.4-87.85-70.81-92.6a.32.32,0,0,1,.18-.6c9,.57,60.29,6.41,94.61,65.73,37.75,65.24-28.07,126.12-28.07,126.12Z"/><path class="cls-1" d="M303.82,306.54a.19.19,0,0,1-.13-.35c9.48-4.87,65.26-35,86.41-80.32,23.15-49.64,10.23-88.72,7.9-95.09s-.82-4.29-.82-4.29,43.4,45.12,35,87.91c-8.66,44.2-62.11,76.71-128.38,92.13"/><path class="cls-1" d="M159.26.28C158.09-2,170.61,9.61,174.9,22.09A47.87,47.87,0,0,1,177,30.48c1.1,7.74.35,19.21-8.39,35.29-13.56,24.94-29.05,38.65-53,70.43-12.86,17.08-19.77,33.24-22.35,41.9A74.18,74.18,0,0,0,90,199.35c0,13.33,3.21,23.08,2.73,22.28C87.64,213,82.1,202.11,79.4,190a68.47,68.47,0,0,1,2.51-38.21c10-28.14,26.49-44.5,58.14-80,10.9-12.24,21.37-26.1,24.81-34.84,8.23-20.89-3.62-32.89-5.59-36.66"/><path class="cls-1" d="M97.72,255.18A.16.16,0,0,0,98,255c-4.79-7.44-34.26-56.33-22-114,12.16-57.35,62.4-87.85,70.81-92.6a.32.32,0,0,0-.18-.6c-9,.57-60.29,6.41-94.61,65.73C14.2,178.79,80,239.67,80,239.67Z"/><path class="cls-1" d="M129.45,305.37a.19.19,0,0,0,.13-.35c-9.48-4.87-65.26-35-86.41-80.32C20,175.06,32.94,136,35.27,129.62s.82-4.29.82-4.29-43.4,45.12-35,87.91c8.66,44.2,62.11,76.71,128.38,92.13"/><path class="cls-1" d="M99.75,485.25q-1.2,1-2.75,2.08a20.71,20.71,0,0,1-3.65,2,25.76,25.76,0,0,1-4.83,1.47,30.91,30.91,0,0,1-6.32.58A24.41,24.41,0,0,1,75,490.2a22.47,22.47,0,0,1-6.8-3.42,18.67,18.67,0,0,1-5-5.65,16.46,16.46,0,0,1-.12-15.4,19,19,0,0,1,4.8-5.68,21.62,21.62,0,0,1,6.7-3.6,23.75,23.75,0,0,1,7.55-1.25,30.27,30.27,0,0,1,5.45.45A24,24,0,0,1,92,456.91a25,25,0,0,1,3.72,1.83q1.7,1,3.25,2.13l-3.1,7q-1.55-1.1-3-2a23,23,0,0,0-3.1-1.63,19.23,19.23,0,0,0-3.42-1.1,18.46,18.46,0,0,0-4-.4,13.18,13.18,0,0,0-4.37.73,10.7,10.7,0,0,0-3.62,2.1,10.19,10.19,0,0,0-2.48,3.35,10.31,10.31,0,0,0-.92,4.43,10.18,10.18,0,0,0,.92,4.37,10.47,10.47,0,0,0,2.48,3.37,11.16,11.16,0,0,0,3.62,2.17,12.25,12.25,0,0,0,4.33.78,19.16,19.16,0,0,0,4-.4,18.27,18.27,0,0,0,3.5-1.12A25.08,25.08,0,0,0,93,480.85q1.53-.95,3-2.05l3.8,6.1Z"/><path class="cls-1" d="M147,473.55a15.94,15.94,0,0,1-2,8A17.94,17.94,0,0,1,140,487.3a22.45,22.45,0,0,1-7.2,3.43,30.22,30.22,0,0,1-8.17,1.13,29.64,29.64,0,0,1-8.17-1.15,22.55,22.55,0,0,1-7.2-3.47,18.11,18.11,0,0,1-5.12-5.77,16.08,16.08,0,0,1-2-8,16.68,16.68,0,0,1,2-8.25,17.46,17.46,0,0,1,5.12-5.77,22.78,22.78,0,0,1,7.2-3.4,30.23,30.23,0,0,1,8.17-1.12,28.12,28.12,0,0,1,8.22,1.23,23.2,23.2,0,0,1,7.17,3.57,18.36,18.36,0,0,1,5.1,5.85,16.26,16.26,0,0,1,2,8m-9.5,0a11.34,11.34,0,0,0-.83-4.32,9.63,9.63,0,0,0-2.47-3.53,12.07,12.07,0,0,0-4.08-2.37,18.35,18.35,0,0,0-11.2,0,11.75,11.75,0,0,0-4,2.37,9.74,9.74,0,0,0-2.45,3.53,11.34,11.34,0,0,0-.83,4.32,10.53,10.53,0,0,0,.83,4.15,9.43,9.43,0,0,0,2.45,3.4,11.89,11.89,0,0,0,4,2.3,17,17,0,0,0,5.63.85,17.46,17.46,0,0,0,5.62-.83,11.61,11.61,0,0,0,4-2.27,9.45,9.45,0,0,0,2.45-3.4,10.67,10.67,0,0,0,.83-4.2"/><polygon class="cls-1" points="192.84 490.9 190.59 472.4 176.89 490.35 173.54 490.35 161.64 472.65 159.54 490.9 150.44 490.9 153.54 455.86 160.94 455.81 175.94 478.2 192.84 455.81 198.79 455.86 201.94 490.9 192.84 490.9"/><path class="cls-1" d="M242.88,468.5a11.37,11.37,0,0,1-4.37,9.2,14.23,14.23,0,0,1-4.75,2.42A19.83,19.83,0,0,1,228,481h-9.75v9.95h-10l0-35h19.95a20.12,20.12,0,0,1,6,.85,13.48,13.48,0,0,1,4.62,2.45,10.78,10.78,0,0,1,3,3.95,13.12,13.12,0,0,1,1.05,5.4m-9.35.1a4.67,4.67,0,0,0-1.45-3.62,6.69,6.69,0,0,0-4.6-1.32h-9.25v10H227a7.15,7.15,0,0,0,4.9-1.48,4.62,4.62,0,0,0,1.65-3.57"/><path class="cls-1" d="M274.53,490.9l-3-6.55H253.63l-3.35,6.55h-9.85l18.65-35.15h7.7l17.85,35.15Zm-11.9-24.65-5.55,11h11Z"/><path class="cls-1" d="M323.87,490.9l-24.6-20.15q0,5,0,10.07t0,10.07h-9.7v-35h6l23.55,19.25q0-4.85,0-9.62t0-9.62h9.55v35Z"/><polygon class="cls-1" points="357.82 477.7 357.82 490.9 347.72 490.9 347.72 477.4 333.12 457.2 333.07 455.86 342.97 455.86 353.47 470.35 363.37 455.86 372.52 455.86 372.52 457.16 357.82 477.7"/><path class="cls-1" d="M112.15,453.46,109,446.8H90.9l-3.41,6.66h-10l19-35.74h7.83l18.15,35.74ZM100,428.4l-5.64,11.18h11.18Z"/><path class="cls-1" d="M153.58,453.46,140.26,440h-3.91v13.42H126.28l-.05-35.64h22.32q6.76,0,10.27,2.95a9.72,9.72,0,0,1,3.51,7.83,8,8,0,0,1-.92,3.74,11.22,11.22,0,0,1-2.47,3.15,15.52,15.52,0,0,1-3.56,2.39,19.32,19.32,0,0,1-4.19,1.5l12.15,12.3v1.78Zm-1.12-24.76a3.67,3.67,0,0,0-.25-1.32,2.69,2.69,0,0,0-.86-1.14,4.87,4.87,0,0,0-1.68-.79,10,10,0,0,0-2.69-.3H136.34v7.27l3,0,3.3,0h3.76q3.25,0,4.65-1.17a3.36,3.36,0,0,0,1.4-2.59"/><path class="cls-1" d="M206.24,447.72q-1.22,1-2.8,2.11a21,21,0,0,1-3.71,2,26.17,26.17,0,0,1-4.91,1.5,31.47,31.47,0,0,1-6.43.59,24.83,24.83,0,0,1-7.35-1.17,22.84,22.84,0,0,1-6.91-3.48,19,19,0,0,1-5.13-5.74,16.73,16.73,0,0,1-.13-15.66,19.28,19.28,0,0,1,4.88-5.77,22,22,0,0,1,6.81-3.66,24.17,24.17,0,0,1,7.68-1.27,30.79,30.79,0,0,1,5.54.46,24.38,24.38,0,0,1,4.55,1.27,25.54,25.54,0,0,1,3.79,1.86q1.73,1,3.3,2.16l-3.15,7.17Q200.7,429,199.2,428a23.34,23.34,0,0,0-3.15-1.65,19.64,19.64,0,0,0-3.48-1.12,18.85,18.85,0,0,0-4.07-.41,13.4,13.4,0,0,0-4.45.74,10.91,10.91,0,0,0-3.68,2.14,10.84,10.84,0,0,0-2.52,12.35,10.65,10.65,0,0,0,2.52,3.43,11.37,11.37,0,0,0,3.68,2.21,12.47,12.47,0,0,0,4.4.79,19.43,19.43,0,0,0,4.12-.41,18.5,18.5,0,0,0,3.56-1.14,25.42,25.42,0,0,0,3.23-1.7q1.55-1,3.07-2.08l3.86,6.2Z"/><path class="cls-1" d="M211.12,453.46l.05-35.63h33.35v7.32H221.34q0,1.78,0,3.53t0,3.53h19.82v7.12H221.34v6.76h23.84v7.37Z"/><path class="cls-1" d="M286.46,453.46l-25-20.49q0,5.08,0,10.24t0,10.24h-9.86V417.83h6.1l23.94,19.57q0-4.93,0-9.79t0-9.79h9.71v35.63Z"/><rect class="cls-1" x="298.04" y="417.83" width="10.17" height="35.63"/><path class="cls-1" d="M345,453.46,334.85,442l-10.42,11.44h-9.91l-.05-1.32,14.79-16.32q-3.71-4.12-7.42-8.31l-7.37-8.31.05-1.37h10.68l10,11.29L345,417.83h10.06L355,419.2l-14.28,16.11,15,16.78.05,1.37Z"/></g></g></svg>