<svg width="46" height="46" viewBox="0 0 46 46" fill="none" xmlns="http://www.w3.org/2000/svg">
<path d="M42.0028 22.3558C40.3497 14.8826 37.8978 10.1155 33.9681 8.95383C33.207 8.7318 32.4178 8.62105 31.625 8.625C29.2091 8.625 27.3026 10.0625 23 10.0625C18.6973 10.0625 16.7873 8.625 14.3749 8.625C13.5491 8.62072 12.7266 8.73139 11.9312 8.95383C7.99604 10.1155 5.56487 14.8871 3.89288 22.3558C2.18585 29.9845 2.49491 36.0121 5.83171 37.1693C8.16764 37.9778 10.2565 36.3059 12.2349 33.845C14.481 31.0419 17.2473 30.1794 23 30.1794C28.7526 30.1794 31.4111 31.0419 33.6608 33.845C35.6374 36.3077 37.8035 37.959 40.0775 37.1836C43.7628 35.9249 43.7107 30.0743 42.0028 22.3558Z" stroke="#F0F0F0" stroke-width="2.75" stroke-miterlimit="10"/>
<path d="M26.2344 21.9219C27.2268 21.9219 28.0312 21.1174 28.0312 20.125C28.0312 19.1326 27.2268 18.3281 26.2344 18.3281C25.242 18.3281 24.4375 19.1326 24.4375 20.125C24.4375 21.1174 25.242 21.9219 26.2344 21.9219Z" fill="#F0F0F0"/>
<path d="M30.1875 25.875C29.8319 25.875 29.4843 25.7695 29.1887 25.5719C28.8931 25.3742 28.6628 25.0933 28.527 24.7647C28.3911 24.4361 28.3558 24.0746 28.4255 23.7259C28.4952 23.3772 28.6668 23.0571 28.9185 22.806C29.1703 22.5548 29.4908 22.3841 29.8397 22.3152C30.1886 22.2464 30.55 22.2826 30.8782 22.4193C31.2065 22.556 31.4868 22.787 31.6837 23.0831C31.8806 23.3792 31.9853 23.727 31.9844 24.0826C31.9832 24.5584 31.7933 25.0143 31.4565 25.3503C31.1196 25.6863 30.6633 25.875 30.1875 25.875Z" fill="#F0F0F0"/>
<path d="M30.1875 17.9688C31.1799 17.9688 31.9844 17.1643 31.9844 16.1719C31.9844 15.1795 31.1799 14.375 30.1875 14.375C29.1951 14.375 28.3906 15.1795 28.3906 16.1719C28.3906 17.1643 29.1951 17.9688 30.1875 17.9688Z" fill="#F0F0F0"/>
<path d="M34.1406 21.9219C35.133 21.9219 35.9375 21.1174 35.9375 20.125C35.9375 19.1326 35.133 18.3281 34.1406 18.3281C33.1482 18.3281 32.3438 19.1326 32.3438 20.125C32.3438 21.1174 33.1482 21.9219 34.1406 21.9219Z" fill="#F0F0F0"/>
<path d="M14.375 15.8125V24.4375M18.6875 20.125H10.0625" stroke="#F0F0F0" stroke-width="2.75" stroke-linecap="round" stroke-linejoin="round"/>
</svg>
