<svg width="40" height="40" viewBox="0 0 40 40" fill="none" xmlns="http://www.w3.org/2000/svg">
<path d="M9.44305 34.1944V36.8654H7.9668V29.9038H9.99523C10.9409 29.9038 11.6409 30.076 12.0949 30.4204C12.549 30.765 12.7759 31.2879 12.7759 31.9891C12.7759 32.3988 12.663 32.7632 12.4374 33.0819C12.2121 33.401 11.893 33.6513 11.4802 33.8322L13.5277 36.865H11.8896L10.228 34.1941L9.44305 34.1944ZM9.44305 32.9944H9.9193C10.3855 32.9944 10.7302 32.9163 10.9524 32.761C11.1743 32.6054 11.2855 32.361 11.2855 32.0279C11.2855 31.6975 11.1721 31.4629 10.9452 31.3232C10.7184 31.1835 10.3668 31.1135 9.89055 31.1135H9.44305V32.9944ZM18.0612 36.8654L17.8659 36.1844H17.7896C17.634 36.4322 17.413 36.6232 17.1277 36.7582C16.8418 36.8932 16.5162 36.9604 16.1515 36.9604C15.5259 36.9604 15.0549 36.7932 14.7371 36.4582C14.4196 36.1232 14.2609 35.6416 14.2609 35.0132V31.5419H15.7134V34.6513C15.7134 35.0354 15.7815 35.3235 15.9184 35.5157C16.0546 35.7079 16.2718 35.8035 16.5702 35.8035C16.9768 35.8035 17.2702 35.6675 17.4512 35.3966C17.6321 35.125 17.7227 34.6754 17.7227 34.0469V31.5422H19.1749V36.8657L18.0612 36.8654ZM23.6605 31.4416C24.289 31.4416 24.7812 31.6872 25.1371 32.1775C25.4924 32.6679 25.6702 33.34 25.6702 34.1941C25.6702 35.0732 25.4868 35.7541 25.1205 36.2363C24.754 36.7191 24.2546 36.96 23.6227 36.96C22.9977 36.96 22.5071 36.7329 22.1515 36.2788H22.0515L21.809 36.8647H20.6993V29.4563H22.1515V31.18C22.1515 31.3991 22.1321 31.7497 22.094 32.2325H22.1515C22.4909 31.7057 22.9943 31.4416 23.6605 31.4416ZM23.194 32.6038C22.8355 32.6038 22.5737 32.7141 22.4087 32.9347C22.2437 33.1557 22.1577 33.5197 22.1515 34.0279V34.1847C22.1515 34.7563 22.2362 35.1657 22.4059 35.4135C22.5759 35.661 22.8449 35.7847 23.213 35.7847C23.5115 35.7847 23.7484 35.6472 23.9249 35.3729C24.1012 35.0985 24.1893 34.6991 24.1893 34.1754C24.1893 33.6516 24.0999 33.2585 23.9224 32.9966C23.7449 32.7347 23.5021 32.6038 23.194 32.6038ZM26.013 31.5419H27.603L28.6077 34.5369C28.6937 34.7972 28.7524 35.105 28.784 35.4607H28.8127C28.8474 35.1338 28.9155 34.8257 29.0171 34.5369L30.0027 31.5419H31.5599L29.3077 37.5463C29.1012 38.1016 28.8071 38.5175 28.4246 38.7938C28.0418 39.07 27.5952 39.2079 27.084 39.2079C26.833 39.2079 26.5871 39.181 26.3462 39.1269V37.9747C26.5336 38.0172 26.7253 38.0378 26.9174 38.0363C27.1743 38.0363 27.399 37.9579 27.5912 37.8007C27.7834 37.6438 27.9334 37.4066 28.0412 37.0891L28.1268 36.8269L26.013 31.5419Z" fill="black"/>
<path d="M27.3511 18.3647L12.0742 27.436L31.8555 26.0941L33.3789 6.14783L27.3511 18.3647Z" fill="url(#paint0_linear_207_125)"/>
<path d="M31.8876 26.0803L30.1873 14.3453L25.5566 20.461L31.8876 26.0803Z" fill="url(#paint1_linear_207_125)"/>
<path d="M31.9103 26.0804L19.4547 25.1025L12.1406 27.4103L31.9103 26.0804Z" fill="url(#paint2_linear_207_125)"/>
<path d="M12.1582 27.4131L15.2697 17.2194L8.42285 18.6837L12.1582 27.4131Z" fill="url(#paint3_linear_207_125)"/>
<path d="M25.5556 20.4944L22.6925 9.27966L14.499 16.96L25.5556 20.4944Z" fill="url(#paint4_linear_207_125)"/>
<path d="M32.729 9.43775L24.9837 3.11182L22.8271 10.0846L32.729 9.43775Z" fill="url(#paint5_linear_207_125)"/>
<path d="M29.1068 0.856504L24.5518 3.374L21.6777 0.822754L29.1068 0.856504Z" fill="url(#paint6_linear_207_125)"/>
<path d="M6.62109 22.1032L8.52953 18.6229L6.98547 14.4769L6.62109 22.1032Z" fill="url(#paint7_linear_207_125)"/>
<path d="M6.88281 14.3453L8.43594 18.7509L15.1844 17.2368L22.8891 10.0765L25.0634 3.17025L21.64 0.752441L15.8191 2.93088C13.9853 4.6365 10.4266 8.0115 10.2981 8.07494C10.1713 8.13994 7.94844 12.3415 6.88281 14.3453Z" fill="white"/>
<path d="M12.3367 6.43162C16.3114 2.49068 21.4351 0.162556 23.4014 2.14662C25.3667 4.13037 23.2826 8.95162 19.308 12.891C15.3336 16.8307 10.273 19.2872 8.30827 17.3032C6.3414 15.3207 8.36233 10.371 12.3367 6.43162Z" fill="url(#paint8_linear_207_125)"/>
<path d="M12.1582 27.4091L15.2454 17.1829L25.4988 20.4769C21.7913 23.9535 17.6682 26.8919 12.1582 27.4091Z" fill="url(#paint9_linear_207_125)"/>
<path d="M22.9023 10.0566L25.5345 20.4825C28.6314 17.2266 31.4108 13.7259 32.7717 9.39624L22.9023 10.0566Z" fill="url(#paint10_linear_207_125)"/>
<path d="M32.7456 9.44874C33.799 6.26937 34.0418 1.70875 29.075 0.862183L24.999 3.11343L32.7456 9.44874Z" fill="url(#paint11_linear_207_125)"/>
<path d="M6.62109 22.0572C6.76703 27.3037 10.5527 27.3822 12.1652 27.4284L8.44016 18.7294L6.62109 22.0572Z" fill="#9E1209"/>
<path d="M22.918 10.0725C25.2977 11.535 30.093 14.4725 30.1902 14.5265C30.3414 14.6115 32.258 11.2947 32.6927 9.42029L22.918 10.0725Z" fill="url(#paint12_radial_207_125)"/>
<path d="M15.2412 17.1831L19.3684 25.1456C21.809 23.8222 23.7196 22.2097 25.4703 20.4825L15.2412 17.1831Z" fill="url(#paint13_radial_207_125)"/>
<path d="M8.42387 18.7403L7.83887 25.7034C8.94262 27.2106 10.4604 27.3412 12.0529 27.224C10.9007 24.3568 8.59949 18.6237 8.42387 18.7403Z" fill="url(#paint14_linear_207_125)"/>
<path d="M24.9746 3.13131L33.1737 4.28225C32.7359 2.42756 31.3921 1.23131 29.1018 0.856934L24.9746 3.13131Z" fill="url(#paint15_linear_207_125)"/>
<defs>
<linearGradient id="paint0_linear_207_125" x1="30.1302" y1="29.8628" x2="24.4855" y2="19.8966" gradientUnits="userSpaceOnUse">
<stop stop-color="#FB7655"/>
<stop offset="0.41" stop-color="#E42B1E"/>
<stop offset="0.99" stop-color="#990000"/>
<stop offset="1" stop-color="#990000"/>
</linearGradient>
<linearGradient id="paint1_linear_207_125" x1="32.9413" y1="21.491" x2="25.6666" y2="16.6094" gradientUnits="userSpaceOnUse">
<stop stop-color="#871101"/>
<stop offset="0.99" stop-color="#911209"/>
<stop offset="1" stop-color="#911209"/>
</linearGradient>
<linearGradient id="paint2_linear_207_125" x1="27.1206" y1="30.165" x2="19.8459" y2="25.2835" gradientUnits="userSpaceOnUse">
<stop stop-color="#871101"/>
<stop offset="0.99" stop-color="#911209"/>
<stop offset="1" stop-color="#911209"/>
</linearGradient>
<linearGradient id="paint3_linear_207_125" x1="11.8472" y1="17.9562" x2="12.975" y2="25.2856" gradientUnits="userSpaceOnUse">
<stop stop-color="white"/>
<stop offset="0.23" stop-color="#E57252"/>
<stop offset="0.46" stop-color="#DE3B20"/>
<stop offset="0.99" stop-color="#A60003"/>
<stop offset="1" stop-color="#A60003"/>
</linearGradient>
<linearGradient id="paint4_linear_207_125" x1="19.6043" y1="11.1128" x2="20.02" y2="18.5931" gradientUnits="userSpaceOnUse">
<stop stop-color="white"/>
<stop offset="0.23" stop-color="#E4714E"/>
<stop offset="0.56" stop-color="#BE1A0D"/>
<stop offset="0.99" stop-color="#A80D00"/>
<stop offset="1" stop-color="#A80D00"/>
</linearGradient>
<linearGradient id="paint5_linear_207_125" x1="26.4875" y1="4.199" x2="27.7315" y2="9.56025" gradientUnits="userSpaceOnUse">
<stop stop-color="white"/>
<stop offset="0.18" stop-color="#E46342"/>
<stop offset="0.4" stop-color="#C82410"/>
<stop offset="0.99" stop-color="#A80D00"/>
<stop offset="1" stop-color="#A80D00"/>
</linearGradient>
<linearGradient id="paint6_linear_207_125" x1="22.689" y1="2.31119" x2="28.0493" y2="-0.368807" gradientUnits="userSpaceOnUse">
<stop stop-color="white"/>
<stop offset="0.54" stop-color="#C81F11"/>
<stop offset="0.99" stop-color="#BF0905"/>
<stop offset="1" stop-color="#BF0905"/>
</linearGradient>
<linearGradient id="paint7_linear_207_125" x1="7.14828" y1="16.0882" x2="7.58953" y2="20.5057" gradientUnits="userSpaceOnUse">
<stop stop-color="white"/>
<stop offset="0.31" stop-color="#DE4024"/>
<stop offset="0.99" stop-color="#BF190B"/>
<stop offset="1" stop-color="#BF190B"/>
</linearGradient>
<linearGradient id="paint8_linear_207_125" x1="4.11546" y1="21.6991" x2="24.8551" y2="0.373179" gradientUnits="userSpaceOnUse">
<stop stop-color="#BD0012"/>
<stop offset="0.07" stop-color="white"/>
<stop offset="0.17" stop-color="white"/>
<stop offset="0.27" stop-color="#C82F1C"/>
<stop offset="0.33" stop-color="#820C01"/>
<stop offset="0.46" stop-color="#A31601"/>
<stop offset="0.72" stop-color="#B31301"/>
<stop offset="0.99" stop-color="#E82609"/>
<stop offset="1" stop-color="#E82609"/>
</linearGradient>
<linearGradient id="paint9_linear_207_125" x1="20.0016" y1="23.851" x2="13.7545" y2="22.3091" gradientUnits="userSpaceOnUse">
<stop stop-color="#8C0C01"/>
<stop offset="0.54" stop-color="#990C00"/>
<stop offset="0.99" stop-color="#A80D0E"/>
<stop offset="1" stop-color="#A80D0E"/>
</linearGradient>
<linearGradient id="paint10_linear_207_125" x1="30.7305" y1="16.3531" x2="25.1808" y2="11.3794" gradientUnits="userSpaceOnUse">
<stop stop-color="#7E110B"/>
<stop offset="0.99" stop-color="#9E0C00"/>
<stop offset="1" stop-color="#9E0C00"/>
</linearGradient>
<linearGradient id="paint11_linear_207_125" x1="32.7703" y1="7.22687" x2="30.0059" y2="4.27156" gradientUnits="userSpaceOnUse">
<stop stop-color="#79130D"/>
<stop offset="0.99" stop-color="#9E120B"/>
<stop offset="1" stop-color="#9E120B"/>
</linearGradient>
<radialGradient id="paint12_radial_207_125" cx="0" cy="0" r="1" gradientUnits="userSpaceOnUse" gradientTransform="translate(26.0461 11.4747) scale(6.80062)">
<stop stop-color="#A80D00"/>
<stop offset="0.99" stop-color="#7E0E08"/>
<stop offset="1" stop-color="#7E0E08"/>
</radialGradient>
<radialGradient id="paint13_radial_207_125" cx="0" cy="0" r="1" gradientUnits="userSpaceOnUse" gradientTransform="translate(16.6271 20.4369) scale(9.04125 9.04125)">
<stop stop-color="#A30C00"/>
<stop offset="0.99" stop-color="#800E08"/>
<stop offset="1" stop-color="#800E08"/>
</radialGradient>
<linearGradient id="paint14_linear_207_125" x1="10.2229" y1="27.4034" x2="7.97012" y2="19.7606" gradientUnits="userSpaceOnUse">
<stop stop-color="#8B2114"/>
<stop offset="0.43" stop-color="#9E100A"/>
<stop offset="0.99" stop-color="#B3100C"/>
<stop offset="1" stop-color="#B3100C"/>
</linearGradient>
<linearGradient id="paint15_linear_207_125" x1="27.5055" y1="2.07631" x2="32.5562" y2="4.30568" gradientUnits="userSpaceOnUse">
<stop stop-color="#B31000"/>
<stop offset="0.44" stop-color="#910F08"/>
<stop offset="0.99" stop-color="#791C12"/>
<stop offset="1" stop-color="#791C12"/>
</linearGradient>
</defs>
</svg>
