<svg width="66" height="40" viewBox="0 0 66 40" fill="none" xmlns="http://www.w3.org/2000/svg">
<g clip-path="url(#clip0_207_102)">
<path d="M32.2429 39.8846C32.0222 39.8846 31.816 39.8257 31.6246 39.7227L29.6665 38.5596C29.372 38.3976 29.5192 38.3387 29.6076 38.3093C30.0051 38.1768 30.0787 38.1472 30.4909 37.9118C30.5351 37.8823 30.5941 37.897 30.6382 37.9265L32.14 38.8246C32.1988 38.854 32.2725 38.854 32.3166 38.8246L38.1911 35.4235C38.2499 35.3941 38.2795 35.3351 38.2795 35.2616V28.4744C38.2795 28.4006 38.2499 28.3419 38.1911 28.3123L32.3166 24.9261C32.2577 24.8965 32.1841 24.8965 32.14 24.9261L26.2655 28.3123C26.2066 28.3418 26.1771 28.4154 26.1771 28.4742V35.2615C26.1771 35.3205 26.2066 35.394 26.2655 35.4235L27.8703 36.3511C28.739 36.7927 29.2837 36.2774 29.2837 35.7621V29.0632C29.2837 28.9749 29.3573 28.8865 29.4604 28.8865H30.2112C30.2996 28.8865 30.3879 28.9601 30.3879 29.0632V35.7621C30.3879 36.9252 29.7548 37.6025 28.6506 37.6025C28.312 37.6025 28.047 37.6025 27.296 37.2344L25.7502 36.3511C25.3674 36.1303 25.1318 35.7179 25.1318 35.2763V28.489C25.1318 28.0474 25.3674 27.635 25.7502 27.4142L31.6246 24.0132C31.9927 23.8071 32.4934 23.8071 32.8614 24.0132L38.7358 27.4142C39.1186 27.635 39.3543 28.0474 39.3543 28.489V35.2763C39.3543 35.7179 39.1186 36.1303 38.7358 36.3511L32.8614 39.7521C32.6699 39.8405 32.449 39.8846 32.2429 39.8846ZM34.054 35.2174C31.4776 35.2174 30.9475 34.0396 30.9475 33.0385C30.9475 32.95 31.0211 32.8618 31.1242 32.8618H31.8898C31.9781 32.8618 32.0517 32.9206 32.0517 33.009C32.1695 33.7893 32.5081 34.1721 34.0688 34.1721C35.3055 34.1721 35.8357 33.8923 35.8357 33.2298C35.8357 32.847 35.6883 32.5674 33.7596 32.3759C32.1548 32.2139 31.1536 31.8606 31.1536 30.5797C31.1536 29.3871 32.1549 28.6804 33.8332 28.6804C35.7177 28.6804 36.6453 29.3283 36.7632 30.7415C36.7632 30.7858 36.7484 30.8299 36.719 30.8741C36.6894 30.9035 36.6453 30.933 36.6011 30.933H35.8355C35.7619 30.933 35.6883 30.8741 35.6736 30.8005C35.4969 29.9908 35.0405 29.7257 33.8332 29.7257C32.4787 29.7257 32.3167 30.1969 32.3167 30.5502C32.3167 30.9772 32.5081 31.1097 34.3337 31.3452C36.1447 31.5809 36.9987 31.9195 36.9987 33.1856C36.9839 34.4813 35.9239 35.2174 34.054 35.2174Z" fill="#539E43"/>
<path d="M14.0162 13.3391C14.0162 13.0742 13.8689 12.8237 13.6334 12.6912L7.39083 9.09888C7.28764 9.0399 7.16993 9.01048 7.05223 8.9957H6.99325C6.87554 8.9957 6.7577 9.0399 6.65465 9.09888L0.412099 12.6912C0.176431 12.8237 0.0292969 13.074 0.0292969 13.3391L0.0440739 22.9974C0.0440739 23.1298 0.117705 23.2623 0.235412 23.3213C0.353246 23.3949 0.50038 23.3949 0.603564 23.3213L4.31376 21.2012C4.5493 21.0687 4.69656 20.8184 4.69656 20.5534V16.0334C4.69656 15.7684 4.84369 15.5181 5.07936 15.3856L6.65465 14.4728C6.77248 14.3991 6.90497 14.3696 7.03745 14.3696C7.16993 14.3696 7.30242 14.3991 7.4056 14.4728L8.98089 15.3856C9.21656 15.5181 9.36369 15.7683 9.36369 16.0334V20.5534C9.36369 20.8184 9.51095 21.0687 9.74649 21.2012L13.4567 23.3213C13.514 23.3574 13.5804 23.3765 13.6481 23.3765C13.7158 23.3765 13.7822 23.3574 13.8395 23.3213C13.9573 23.2623 14.031 23.1298 14.031 22.9974L14.0162 13.3391ZM44.0217 0.0442357C43.9039 -0.0147452 43.7567 -0.0147452 43.6535 0.0442357C43.5358 0.117866 43.4622 0.235573 43.4622 0.368057V9.93812C43.4622 10.0264 43.4181 10.1147 43.3297 10.1737C43.2414 10.2177 43.153 10.2177 43.0647 10.1737L41.5041 9.27557C41.3897 9.21043 41.2603 9.17617 41.1286 9.17617C40.9969 9.17617 40.8675 9.21043 40.7531 9.27557L34.5106 12.8827C34.275 13.0152 34.1278 13.2655 34.1278 13.5305V20.73C34.1278 20.9949 34.275 21.2454 34.5106 21.3779L40.7531 24.985C40.8675 25.0501 40.9969 25.0844 41.1286 25.0844C41.2603 25.0844 41.3897 25.0501 41.5041 24.985L47.7466 21.3779C47.9822 21.2454 48.1294 20.9951 48.1294 20.73V2.78271C48.1294 2.50296 47.9822 2.25277 47.7466 2.12016L44.0217 0.0442357ZM43.4475 18.3596C43.4475 18.4333 43.4181 18.4921 43.3591 18.5216L41.2243 19.7582C41.1945 19.7728 41.1618 19.7804 41.1286 19.7804C41.0954 19.7804 41.0627 19.7728 41.0329 19.7582L38.8981 18.5216C38.8391 18.4921 38.8097 18.4185 38.8097 18.3596V15.8861C38.8097 15.8125 38.8391 15.7537 38.8981 15.7242L41.0329 14.4874C41.0627 14.4729 41.0954 14.4653 41.1286 14.4653C41.1618 14.4653 41.1945 14.4729 41.2243 14.4874L43.3591 15.7242C43.4181 15.7535 43.4475 15.8273 43.4475 15.8861V18.3596ZM64.7958 15.8273C65.0315 15.6948 65.1639 15.4445 65.1639 15.1794V13.4274C65.1639 13.1625 65.0167 12.9121 64.7958 12.7796L58.5975 9.18729C58.483 9.12215 58.3536 9.08789 58.222 9.08789C58.0903 9.08789 57.9609 9.12215 57.8465 9.18729L51.604 12.7943C51.3683 12.9268 51.2211 13.1771 51.2211 13.4421V20.6417C51.2211 20.9067 51.3684 21.157 51.604 21.2895L57.8023 24.823C58.038 24.9554 58.3177 24.9554 58.5386 24.823L62.2929 22.7325C62.4107 22.6735 62.4843 22.541 62.4843 22.4086C62.4843 22.2761 62.4107 22.1436 62.2929 22.0846L56.0209 18.4775C55.9031 18.4039 55.8294 18.2861 55.8294 18.1537V15.901C55.8294 15.7686 55.9031 15.6361 56.0209 15.5771L57.979 14.4581C58.0363 14.422 58.1027 14.4029 58.1704 14.4029C58.2381 14.4029 58.3045 14.422 58.3618 14.4581L60.32 15.5771C60.4378 15.6507 60.5113 15.7684 60.5113 15.901V17.6678C60.5113 17.8003 60.585 17.9328 60.7028 17.9916C60.7601 18.0277 60.8265 18.0469 60.8942 18.0469C60.9619 18.0469 61.0283 18.0277 61.0856 17.9916L64.7958 15.8273Z" fill="black"/>
<path d="M58.1265 15.4885C58.1483 15.4741 58.1739 15.4664 58.2001 15.4664C58.2263 15.4664 58.2519 15.4741 58.2737 15.4885L59.4663 16.1805C59.5104 16.21 59.5398 16.2541 59.5398 16.313V17.6971C59.5398 17.7559 59.5105 17.8001 59.4663 17.8295L58.2737 18.5215C58.2519 18.5359 58.2263 18.5436 58.2001 18.5436C58.1739 18.5436 58.1483 18.5359 58.1265 18.5215L56.934 17.8295C56.8898 17.8001 56.8604 17.7559 56.8604 17.6971V16.3131C56.8604 16.2541 56.8897 16.2099 56.934 16.1806L58.1265 15.4885Z" fill="#539E43"/>
<path d="M24.455 9.21668C24.3406 9.15155 24.2112 9.11731 24.0796 9.11731C23.948 9.11731 23.8186 9.15155 23.7042 9.21668L17.5058 12.7941C17.2702 12.9266 17.1377 13.1769 17.1377 13.4419V20.6121C17.1377 20.8771 17.285 21.1274 17.5058 21.2599L23.7042 24.8376C23.8186 24.9027 23.948 24.9369 24.0796 24.9369C24.2112 24.9369 24.3406 24.9027 24.455 24.8376L30.6535 21.2599C30.889 21.1274 31.0216 20.8771 31.0216 20.6121V13.442C31.0216 13.1771 30.8743 12.9267 30.6535 12.7943L24.455 9.21668Z" fill="url(#paint0_linear_207_102)"/>
<mask id="mask0_207_102" style="mask-type:luminance" maskUnits="userSpaceOnUse" x="17" y="9" width="15" height="16">
<path d="M24.455 9.21668C24.3406 9.15155 24.2112 9.11731 24.0796 9.11731C23.948 9.11731 23.8186 9.15155 23.7042 9.21668L17.5058 12.7941C17.2702 12.9266 17.1377 13.1769 17.1377 13.4419V20.6121C17.1377 20.8771 17.285 21.1274 17.5058 21.2599L23.7042 24.8376C23.8186 24.9027 23.948 24.9369 24.0796 24.9369C24.2112 24.9369 24.3406 24.9027 24.455 24.8376L30.6535 21.2599C30.889 21.1274 31.0216 20.8771 31.0216 20.6121V13.442C31.0216 13.1771 30.8743 12.9267 30.6535 12.7943L24.455 9.21668Z" fill="white"/>
</mask>
<g mask="url(#mask0_207_102)">
<path d="M30.6685 12.7943L24.4407 9.2167C24.3795 9.1858 24.3154 9.16113 24.2492 9.14307L17.2705 21.0982C17.3283 21.1688 17.3981 21.2286 17.4767 21.2749L23.7045 24.8526C23.8812 24.9557 24.0873 24.9851 24.2787 24.9261L30.8305 12.9417C30.7863 12.8828 30.7273 12.8384 30.6685 12.7943Z" fill="url(#paint1_linear_207_102)"/>
</g>
<mask id="mask1_207_102" style="mask-type:luminance" maskUnits="userSpaceOnUse" x="17" y="9" width="15" height="16">
<path d="M24.455 9.21668C24.3406 9.15155 24.2112 9.11731 24.0796 9.11731C23.948 9.11731 23.8186 9.15155 23.7042 9.21668L17.5058 12.7941C17.2702 12.9266 17.1377 13.1769 17.1377 13.4419V20.6121C17.1377 20.8771 17.285 21.1274 17.5058 21.2599L23.7042 24.8376C23.8186 24.9027 23.948 24.9369 24.0796 24.9369C24.2112 24.9369 24.3406 24.9027 24.455 24.8376L30.6535 21.2599C30.889 21.1274 31.0216 20.8771 31.0216 20.6121V13.442C31.0216 13.1771 30.8743 12.9267 30.6535 12.7943L24.455 9.21668Z" fill="white"/>
</mask>
<g mask="url(#mask1_207_102)">
<path fill-rule="evenodd" clip-rule="evenodd" d="M30.6831 21.26C30.8597 21.1569 30.9922 20.9802 31.0512 20.7889L24.2195 9.12827C24.0428 9.09884 23.8513 9.11349 23.6896 9.21655L17.5059 12.7796L24.1753 24.9408C24.2723 24.9249 24.3665 24.8951 24.455 24.8525L30.6831 21.26Z" fill="url(#paint2_linear_207_102)"/>
<path fill-rule="evenodd" clip-rule="evenodd" d="M30.6833 21.26L24.4702 24.8377C24.3825 24.8825 24.2879 24.9123 24.1904 24.926L24.3083 25.1469L31.1986 21.1571V21.0687L31.0219 20.7742C30.9925 20.9803 30.86 21.157 30.6833 21.26Z" fill="url(#paint3_linear_207_102)"/>
<path fill-rule="evenodd" clip-rule="evenodd" d="M30.6833 21.26L24.4702 24.8377C24.3825 24.8825 24.2879 24.9123 24.1904 24.926L24.3083 25.1469L31.1986 21.1571V21.0687L31.0219 20.7742C30.9925 20.9803 30.86 21.157 30.6833 21.26Z" fill="url(#paint4_linear_207_102)"/>
</g>
</g>
<defs>
<linearGradient id="paint0_linear_207_102" x1="963.856" y1="285.755" x2="284.458" y2="1353.29" gradientUnits="userSpaceOnUse">
<stop stop-color="#41873F"/>
<stop offset="0.3288" stop-color="#418B3D"/>
<stop offset="0.6352" stop-color="#419637"/>
<stop offset="0.9319" stop-color="#3FA92D"/>
<stop offset="1" stop-color="#3FAE2A"/>
</linearGradient>
<linearGradient id="paint1_linear_207_102" x1="604.107" y1="881.538" x2="2305.63" y2="-42.9051" gradientUnits="userSpaceOnUse">
<stop offset="0.1376" stop-color="#41873F"/>
<stop offset="0.4032" stop-color="#54A044"/>
<stop offset="0.7136" stop-color="#66B848"/>
<stop offset="0.9081" stop-color="#6CC04A"/>
</linearGradient>
<linearGradient id="paint2_linear_207_102" x1="-41.9447" y1="800.362" x2="1392.35" y2="800.362" gradientUnits="userSpaceOnUse">
<stop offset="0.09192" stop-color="#6CC04A"/>
<stop offset="0.2864" stop-color="#66B848"/>
<stop offset="0.5968" stop-color="#54A044"/>
<stop offset="0.8624" stop-color="#41873F"/>
</linearGradient>
<linearGradient id="paint3_linear_207_102" x1="-703.683" y1="240.614" x2="730.591" y2="240.614" gradientUnits="userSpaceOnUse">
<stop offset="0.09192" stop-color="#6CC04A"/>
<stop offset="0.2864" stop-color="#66B848"/>
<stop offset="0.5968" stop-color="#54A044"/>
<stop offset="0.8624" stop-color="#41873F"/>
</linearGradient>
<linearGradient id="paint4_linear_207_102" x1="939.546" y1="-902.175" x2="576.189" y2="1001.81" gradientUnits="userSpaceOnUse">
<stop stop-color="#41873F"/>
<stop offset="0.3288" stop-color="#418B3D"/>
<stop offset="0.6352" stop-color="#419637"/>
<stop offset="0.9319" stop-color="#3FA92D"/>
<stop offset="1" stop-color="#3FAE2A"/>
</linearGradient>
<clipPath id="clip0_207_102">
<rect width="65.2229" height="40" fill="white"/>
</clipPath>
</defs>
</svg>
