<svg width="41" height="9" viewBox="0 0 41 9" fill="none" xmlns="http://www.w3.org/2000/svg">
<g clip-path="url(#clip0_207_98)">
<path d="M33.7807 0.00335938V1.2893H31.0169V8.05469H29.6348V1.28937H26.8134V0.00335938H33.7807ZM34.0914 7.28773C34.1887 7.28773 34.2739 7.32273 34.346 7.39289C34.4191 7.46297 34.4555 7.54695 34.4566 7.64477C34.4564 7.70895 34.4385 7.77184 34.405 7.82656C34.3721 7.88057 34.326 7.92533 34.2711 7.95664C34.2168 7.98908 34.1546 8.006 34.0914 8.00555C33.9902 8.00555 33.9041 7.97047 33.832 7.90039C33.7599 7.83023 33.7242 7.74531 33.7252 7.64477C33.7243 7.54695 33.7599 7.46297 33.832 7.39289C33.9041 7.32273 33.9902 7.28773 34.0914 7.28773ZM6.70047 8.05469L1.60469 1.72094V8.05141H0.222656V0H1.95008L8.38805 7.99445L8.38812 1.28937L8.38758 0.00335938H15.3548V1.2893H9.77008V3.35805H14.2613V4.64406H9.77008V6.76875H15.3548V8.05469H6.70047ZM19.784 4.6318L20.6897 5.75781L18.8338 8.06422H17.0202L19.784 4.6318ZM18.8338 0.00671875L21.1721 2.91062L23.503 0.015625L25.3116 0.0128906L22.0776 4.03516L25.3169 8.05805H23.503L17.0253 0.00671875H18.8338ZM36.4501 4.61375H37.0624V6.97312C37.0616 7.18992 37.0146 7.37531 36.923 7.53133C36.8302 7.68719 36.7019 7.80625 36.5372 7.89023C36.3733 7.9732 36.1813 8.0157 35.9631 8.0157C35.7637 8.0157 35.5849 7.97977 35.4257 7.90961C35.2665 7.83945 35.1402 7.7343 35.0474 7.59586C34.9537 7.4575 34.9078 7.28492 34.9078 7.07828H35.5212C35.5222 7.16867 35.5427 7.24703 35.582 7.31266C35.6207 7.37742 35.6773 7.42962 35.745 7.46297C35.8152 7.49813 35.8958 7.51562 35.9865 7.51562C36.0849 7.51562 36.1691 7.49531 36.2375 7.45375C36.3058 7.41312 36.3583 7.35227 36.3948 7.27109C36.4304 7.19078 36.4491 7.09117 36.4501 6.97305V4.61375ZM39.5821 5.53641C39.5673 5.39344 39.5016 5.28172 39.3874 5.20242C39.2722 5.12211 39.1234 5.0825 38.9407 5.0825C38.8126 5.0825 38.702 5.10188 38.6102 5.13969C38.5185 5.17844 38.4473 5.23008 38.3986 5.29562C38.35 5.36109 38.3256 5.43586 38.3237 5.51984C38.3237 5.58992 38.3405 5.65086 38.3733 5.70156C38.4072 5.75472 38.4531 5.79927 38.5072 5.83172C38.566 5.86868 38.6288 5.89869 38.6945 5.92117C38.7638 5.94516 38.8331 5.96547 38.9023 5.98211L39.2216 6.06055C39.35 6.09008 39.4745 6.12969 39.5934 6.18047C39.7123 6.23031 39.82 6.29398 39.9145 6.37055C40.0091 6.44711 40.0841 6.53937 40.1393 6.64734C40.1945 6.75531 40.2227 6.88172 40.2227 7.0275C40.2227 7.22398 40.1721 7.39656 40.07 7.54602C39.968 7.69461 39.8209 7.81086 39.628 7.89484C39.4361 7.97789 39.2038 8.02031 38.9305 8.02031C38.6664 8.02031 38.4361 7.97969 38.2422 7.89852C38.0475 7.81828 37.8958 7.70008 37.7862 7.54508C37.6766 7.39008 37.6177 7.20094 37.6092 6.97859H38.2161C38.2245 7.09484 38.262 7.19172 38.3256 7.27016C38.3902 7.34766 38.4745 7.40484 38.5775 7.44359C38.6814 7.48148 38.7975 7.50086 38.9258 7.50086C39.0597 7.50086 39.1777 7.48055 39.2797 7.44086C39.3809 7.40117 39.4604 7.34586 39.5176 7.27383C39.5756 7.20273 39.6047 7.11883 39.6056 7.02289C39.6047 6.93523 39.5784 6.86234 39.5278 6.80508C39.4763 6.74789 39.4052 6.69992 39.3143 6.66117C39.2227 6.62242 39.1159 6.58734 38.9941 6.55695L38.6065 6.45914C38.3265 6.38805 38.1046 6.28016 37.9426 6.13523C37.7797 5.99039 37.6991 5.79852 37.6991 5.55766C37.6991 5.36023 37.7534 5.18672 37.863 5.03813C37.9716 4.88969 38.1205 4.7743 38.3088 4.69219C38.4978 4.60914 38.7114 4.56852 38.9491 4.56852C39.1908 4.56852 39.4023 4.60914 39.585 4.69219C39.7675 4.7743 39.9109 4.88867 40.0147 5.03445C40.1187 5.18031 40.173 5.34727 40.1759 5.53641H39.5821Z" fill="#F0F0F0"/>
</g>
<defs>
<clipPath id="clip0_207_98">
<rect width="40" height="8.125" fill="white" transform="translate(0.222656)"/>
</clipPath>
</defs>
</svg>
