<svg width="27" height="40" viewBox="0 0 27 40" fill="none" xmlns="http://www.w3.org/2000/svg">
<g clip-path="url(#clip0_207_177)">
<path d="M6.66667 40C10.3467 40 13.3333 37.0133 13.3333 33.3333V26.6666H6.66667C2.98667 26.6666 0 29.6533 0 33.3333C0 37.0133 2.98667 40 6.66667 40Z" fill="#0ACF83"/>
<path d="M0 20C0 16.32 2.98667 13.3334 6.66667 13.3334H13.3333V26.6667H6.66667C2.98667 26.6667 0 23.68 0 20Z" fill="#A259FF"/>
<path d="M0 6.66667C0 2.98667 2.98667 0 6.66667 0H13.3333V13.3333H6.66667C2.98667 13.3333 0 10.3467 0 6.66667Z" fill="#F24E1E"/>
<path d="M13.333 0H19.9997C23.6797 0 26.6663 2.98667 26.6663 6.66667C26.6663 10.3467 23.6797 13.3333 19.9997 13.3333H13.333V0Z" fill="#FF7262"/>
<path d="M26.6663 20C26.6663 23.68 23.6797 26.6667 19.9997 26.6667C16.3197 26.6667 13.333 23.68 13.333 20C13.333 16.32 16.3197 13.3334 19.9997 13.3334C23.6797 13.3334 26.6663 16.32 26.6663 20Z" fill="#1ABCFE"/>
</g>
<defs>
<clipPath id="clip0_207_177">
<rect width="26.6667" height="40" fill="white"/>
</clipPath>
</defs>
</svg>
