<svg width="40" height="12" viewBox="0 0 40 12" fill="none" xmlns="http://www.w3.org/2000/svg">
<g clip-path="url(#clip0_207_100)">
<path d="M0.260312 9.03352V4.58187H5.81844V4.32148H0.260312V0.260312H6.16984V0H0V9.29383H6.22188V9.03352H0.260312ZM11.2334 2.60328L8.92945 5.63617L6.6775 2.60336H6.33906L8.7732 5.83148L6.10469 9.29375H6.41711L8.9293 6.02656L11.4545 9.29375H11.7799L9.09852 5.83133L11.5456 2.6032L11.2334 2.60328ZM12.561 11.5848V7.41953H12.587C12.7433 8.02695 13.0513 8.51508 13.5112 8.88391C13.9712 9.25266 14.5569 9.43711 15.2684 9.43711C15.7284 9.43711 16.1363 9.34383 16.492 9.15727C16.8478 8.9707 17.145 8.71688 17.3837 8.39578C17.6223 8.07469 17.8045 7.70156 17.9304 7.27633C18.0562 6.85117 18.1191 6.40422 18.1191 5.9357C18.1191 5.43234 18.054 4.96805 17.9238 4.54289C17.7937 4.11766 17.6049 3.74883 17.3577 3.43648C17.1103 3.12406 16.8109 2.88102 16.4595 2.70758C16.108 2.53398 15.711 2.44719 15.2684 2.44719C14.93 2.44719 14.6155 2.49711 14.3248 2.59688C14.0341 2.69672 13.7759 2.83766 13.5503 3.01992C13.3234 3.20359 13.1258 3.42086 12.9645 3.66422C12.7997 3.91156 12.6738 4.18273 12.587 4.47781H12.561V2.60328H12.3007V11.5848H12.561ZM15.2684 9.18969C14.4528 9.18969 13.7976 8.90984 13.303 8.35016C12.8084 7.79047 12.561 6.98555 12.561 5.93555C12.561 5.50164 12.6218 5.08945 12.7433 4.69898C12.8648 4.30852 13.0405 3.9657 13.2704 3.6707C13.5004 3.37563 13.7846 3.14133 14.123 2.96781C14.4614 2.79422 14.8433 2.70742 15.2684 2.70742C15.7023 2.70742 16.082 2.79422 16.4074 2.96781C16.7328 3.14133 17.0019 3.37781 17.2145 3.67719C17.427 3.97656 17.5876 4.31938 17.6961 4.70547C17.8045 5.09164 17.8587 5.50164 17.8587 5.93555C17.8587 6.32609 17.8089 6.71445 17.7091 7.10055C17.6093 7.48672 17.4552 7.83383 17.247 8.14195C17.0387 8.44992 16.772 8.70156 16.4465 8.89687C16.121 9.09211 15.7284 9.18969 15.2684 9.18969ZM19.5509 9.29383V5.50602C19.5509 5.14156 19.603 4.7857 19.7072 4.43867C19.8113 4.09156 19.9718 3.78562 20.1887 3.52102C20.4057 3.25633 20.6812 3.04805 21.0153 2.89617C21.3494 2.7443 21.7464 2.68141 22.2063 2.70742V2.44711C21.8071 2.43852 21.4579 2.4818 21.1585 2.57727C20.8591 2.67273 20.6009 2.80289 20.384 2.96781C20.167 3.13266 19.9935 3.3257 19.8634 3.54703C19.7333 3.76801 19.6368 4.00707 19.577 4.25641H19.5509V2.60328H19.2906V9.29391L19.5509 9.29383ZM22.5317 6.00062H28.1288C28.1463 5.5407 28.1007 5.0982 27.9922 4.67297C27.8837 4.24773 27.7102 3.87023 27.4716 3.54055C27.2329 3.21078 26.9248 2.94609 26.5473 2.74648C26.1698 2.54688 25.7208 2.44711 25.2002 2.44711C24.827 2.44711 24.4625 2.52523 24.1067 2.68148C23.7509 2.83766 23.4385 3.06539 23.1695 3.36477C22.9005 3.66414 22.6836 4.03078 22.5187 4.46477C22.3539 4.89859 22.2714 5.3932 22.2714 5.94859C22.2714 6.4432 22.3278 6.90531 22.4406 7.33484C22.5534 7.76438 22.727 8.13758 22.9613 8.4543C23.1956 8.77102 23.4972 9.01617 23.8659 9.18969C24.2347 9.36328 24.6795 9.4457 25.2002 9.43703C25.9638 9.43703 26.6059 9.22219 27.1266 8.79273C27.6473 8.36312 27.9553 7.75789 28.0508 6.97688H27.7905C27.6777 7.71453 27.3891 8.26773 26.9248 8.63648C26.4605 9.00531 25.877 9.18969 25.1741 9.18969C24.6968 9.18969 24.2933 9.10727 23.9635 8.94242C23.6338 8.77758 23.3648 8.55188 23.1565 8.26555C22.9483 7.97914 22.7942 7.64289 22.6945 7.25672C22.5946 6.87063 22.5404 6.45187 22.5317 6.00062ZM27.8685 5.74031H22.5318C22.5577 5.27172 22.6445 4.85086 22.792 4.47773C22.9396 4.10453 23.1327 3.78562 23.3713 3.52102C23.6099 3.25633 23.8877 3.05461 24.2044 2.9157C24.5211 2.77688 24.8617 2.70742 25.2262 2.70742C25.6601 2.70742 26.0418 2.78773 26.3716 2.94828C26.7013 3.10883 26.9769 3.32797 27.1982 3.60563C27.4195 3.88328 27.5865 4.20656 27.6993 4.57531C27.8121 4.94414 27.8685 5.3325 27.8685 5.74031ZM33.5308 4.58187H33.7911C33.7911 3.83555 33.5741 3.2932 33.1403 2.95477C32.7063 2.61633 32.1162 2.44711 31.37 2.44711C30.9534 2.44711 30.602 2.49922 30.3156 2.60336C30.0293 2.70742 29.795 2.84195 29.6127 3.0068C29.4305 3.17164 29.3004 3.35391 29.2223 3.55352C29.1441 3.75312 29.1051 3.94406 29.1051 4.12625C29.1051 4.4907 29.1702 4.78141 29.3004 4.99836C29.4305 5.21531 29.6345 5.38453 29.9121 5.50602C30.103 5.59273 30.3199 5.67086 30.563 5.74039C30.8059 5.80977 31.088 5.88352 31.4091 5.96156C31.6954 6.03109 31.9774 6.10047 32.2552 6.16984C32.5328 6.2393 32.778 6.33258 32.9905 6.44969C33.2032 6.56687 33.3767 6.71656 33.5112 6.89883C33.6457 7.08102 33.713 7.31969 33.713 7.61469C33.713 7.90109 33.6458 8.14406 33.5112 8.34359C33.3779 8.54216 33.2023 8.70886 32.9971 8.8318C32.7888 8.95758 32.5566 9.04867 32.3007 9.10508C32.0447 9.16148 31.7952 9.18969 31.5523 9.18969C30.7626 9.18969 30.1573 9.01398 29.7364 8.66258C29.3155 8.31109 29.1052 7.75789 29.1052 7.00289H28.8448C28.8448 7.84469 29.0726 8.46078 29.5281 8.85133C29.9837 9.2418 30.6584 9.43703 31.5523 9.43703C31.8386 9.43703 32.1271 9.40445 32.4179 9.33937C32.7085 9.2743 32.9689 9.16805 33.1988 9.02047C33.4268 8.87498 33.6183 8.67906 33.7585 8.44781C33.9017 8.21344 33.9734 7.92711 33.9734 7.58867C33.9734 7.26758 33.9104 7.00727 33.7846 6.80766C33.6587 6.60813 33.4939 6.4432 33.2899 6.31305C33.086 6.18289 32.8561 6.08094 32.6001 6.00719C32.3426 5.933 32.0844 5.86138 31.8255 5.79234C31.5069 5.70875 31.188 5.62633 30.8688 5.54508C30.5955 5.47562 30.3417 5.3932 30.1074 5.29773C29.8818 5.20227 29.7017 5.06563 29.5672 4.88773C29.4327 4.70984 29.3655 4.45602 29.3655 4.12625C29.3655 4.06555 29.3828 3.95703 29.4175 3.80086C29.4522 3.64461 29.5347 3.48625 29.6648 3.3257C29.795 3.16523 29.9945 3.02203 30.2636 2.89617C30.5326 2.77039 30.9014 2.70742 31.37 2.70742C31.6911 2.70742 31.9839 2.74219 32.2486 2.81156C32.5133 2.88102 32.7411 2.99164 32.932 3.14352C33.1229 3.29539 33.2704 3.48844 33.3745 3.72273C33.4787 3.95711 33.5308 4.24344 33.5308 4.58187ZM39.5574 4.58187H39.8177C39.8177 3.83555 39.6009 3.2932 39.167 2.95477C38.733 2.61633 38.143 2.44711 37.3966 2.44711C36.9802 2.44711 36.6287 2.49922 36.3423 2.60336C36.0559 2.70742 35.8216 2.84195 35.6395 3.0068C35.4572 3.17164 35.327 3.35391 35.2489 3.55352C35.1708 3.75312 35.1318 3.94406 35.1318 4.12625C35.1318 4.4907 35.1969 4.78141 35.3271 4.99836C35.4572 5.21531 35.6612 5.38453 35.9388 5.50602C36.1298 5.59273 36.3466 5.67086 36.5896 5.74039C36.8326 5.80977 37.1146 5.88352 37.4357 5.96156C37.7221 6.03109 38.0041 6.10047 38.2818 6.16984C38.5595 6.2393 38.8046 6.33258 39.0173 6.44969C39.2298 6.56687 39.4034 6.71656 39.5379 6.89883C39.6724 7.08102 39.7397 7.31969 39.7397 7.61469C39.7397 7.90109 39.6724 8.14406 39.5379 8.34359C39.4045 8.54215 39.229 8.70885 39.0238 8.8318C38.8155 8.95758 38.5834 9.04867 38.3273 9.10508C38.0714 9.16148 37.8219 9.18969 37.5789 9.18969C36.7892 9.18969 36.184 9.01398 35.7631 8.66258C35.3422 8.31109 35.1318 7.75789 35.1318 7.00289H34.8715C34.8715 7.84469 35.0992 8.46078 35.5548 8.85133C36.0104 9.2418 36.6851 9.43703 37.5789 9.43703C37.8653 9.43703 38.1538 9.40445 38.4445 9.33937C38.7352 9.2743 38.9955 9.16805 39.2255 9.02047C39.4535 8.87498 39.645 8.67906 39.7852 8.44781C39.9284 8.21344 40 7.92711 40 7.58867C40 7.26758 39.9371 7.00727 39.8113 6.80766C39.6855 6.60813 39.5206 6.4432 39.3166 6.31305C39.1127 6.18289 38.8827 6.08094 38.6268 6.00719C38.3693 5.933 38.1111 5.86138 37.8523 5.79234C37.5337 5.70875 37.2148 5.62633 36.8955 5.54508C36.6222 5.47562 36.3684 5.3932 36.1341 5.29773C35.9084 5.20227 35.7284 5.06563 35.5939 4.88773C35.4594 4.70984 35.3921 4.45602 35.3921 4.12625C35.3921 4.06555 35.4095 3.95703 35.4442 3.80086C35.4789 3.64461 35.5614 3.48625 35.6915 3.3257C35.8216 3.16523 36.0213 3.02203 36.2902 2.89617C36.5593 2.77039 36.928 2.70742 37.3967 2.70742C37.7178 2.70742 38.0106 2.74219 38.2753 2.81156C38.54 2.88102 38.7677 2.99164 38.9587 3.14352C39.1496 3.29539 39.2971 3.48844 39.4012 3.72273C39.5054 3.95711 39.5575 4.24344 39.5575 4.58187" fill="#F0F0F0"/>
</g>
<defs>
<clipPath id="clip0_207_100">
<rect width="40" height="11.6406" fill="white"/>
</clipPath>
</defs>
</svg>
