<svg width="40" height="17" viewBox="0 0 40 17" fill="none" xmlns="http://www.w3.org/2000/svg">
<g clip-path="url(#clip0_207_145)">
<path d="M23.9039 5.81463C23.0293 5.81463 22.3781 6.24401 22.3781 7.27745C22.3781 8.05604 22.8073 8.59666 23.8567 8.59666C24.7462 8.59666 25.3504 8.07245 25.3504 7.2451C25.3504 6.3076 24.8098 5.81463 23.9039 5.81463ZM22.1554 13.1117C21.9484 13.3656 21.7421 13.6356 21.7421 13.9539C21.7421 14.5893 22.5525 14.7806 23.6656 14.7806C24.5875 14.7806 25.8434 14.7159 25.8434 13.8587C25.8434 13.3492 25.2392 13.3178 24.4757 13.2699L22.1554 13.1117ZM26.8606 5.8626C27.1462 6.22823 27.4487 6.73713 27.4487 7.46823C27.4487 9.2326 26.0657 10.2657 24.0632 10.2657C23.554 10.2657 23.0931 10.2023 22.8073 10.1229L22.2825 10.9651L23.8401 11.0604C26.5904 11.2357 28.2112 11.3154 28.2112 13.4287C28.2112 15.2571 26.6062 16.2898 23.8401 16.2898C20.9631 16.2898 19.8662 15.5585 19.8662 14.3029C19.8662 13.5876 20.1842 13.2068 20.7406 12.6814C20.2159 12.4596 20.0412 12.0624 20.0412 11.6329C20.0412 11.2829 20.2159 10.9653 20.5025 10.6629C20.7884 10.3614 21.1062 10.059 21.4878 9.70932C20.709 9.32776 20.1206 8.50119 20.1206 7.32463C20.1206 5.49698 21.3289 4.24166 23.7604 4.24166C24.4442 4.24166 24.8576 4.30448 25.2232 4.40057H28.3232V5.7512L26.8606 5.8626ZM31.1198 2.97401C30.2136 2.97401 29.689 2.44901 29.689 1.5426C29.689 0.637446 30.2134 0.144165 31.1198 0.144165C32.0417 0.144165 32.5664 0.637446 32.5664 1.5426C32.5664 2.44901 32.0418 2.97401 31.1198 2.97401ZM29.0689 12.5267V11.2715L29.8798 11.1606C30.1025 11.1285 30.134 11.081 30.134 10.8421V6.1687C30.134 5.99432 30.0865 5.88245 29.927 5.83526L29.0689 5.53291L29.2436 4.24573H32.5343V10.8421C32.5343 11.0968 32.5497 11.1285 32.7889 11.1607L33.5995 11.2717V12.5267H29.0689ZM39.8856 11.9104C39.2018 12.244 38.2004 12.546 37.294 12.546C35.4025 12.546 34.6875 11.7839 34.6875 9.98666V5.82245C34.6875 5.72713 34.6875 5.66354 34.5598 5.66354H33.4473V4.24838C34.8465 4.08901 35.4025 3.38963 35.5773 1.65698H37.0876V3.91479C37.0876 4.02573 37.0876 4.0737 37.215 4.0737H39.4561V5.66323H37.0876V9.46213C37.0876 10.3999 37.3104 10.7653 38.1684 10.7653C38.614 10.7653 39.0745 10.6543 39.4559 10.5112L39.8856 11.9104Z" fill="#F0F0F0"/>
<path d="M16.3325 7.73907L9.06441 0.47141C8.96488 0.371843 8.8467 0.292859 8.71663 0.238972C8.58657 0.185084 8.44716 0.157349 8.30637 0.157349C8.16558 0.157349 8.02617 0.185084 7.8961 0.238972C7.76604 0.292859 7.64786 0.371843 7.54832 0.47141L6.0391 1.98079L7.95363 3.89516C8.17868 3.81863 8.42066 3.80665 8.65216 3.86058C8.88366 3.91451 9.09543 4.0322 9.26348 4.20032C9.43243 4.36949 9.55039 4.58277 9.60388 4.8158C9.65737 5.04883 9.64424 5.29221 9.56598 5.51813L11.4108 7.36329C11.8572 7.20954 12.3724 7.30907 12.7288 7.6661C12.8473 7.78452 12.9413 7.92513 13.0054 8.07989C13.0695 8.23465 13.1026 8.40053 13.1026 8.56805C13.1026 8.73557 13.0695 8.90146 13.0054 9.05622C12.9413 9.21098 12.8473 9.35159 12.7288 9.47001C12.5203 9.67868 12.246 9.80865 11.9524 9.8378C11.6589 9.86696 11.3644 9.79349 11.1189 9.62991C10.8735 9.46632 10.6923 9.22273 10.6062 8.9406C10.5202 8.65847 10.5346 8.35523 10.6469 8.08251L8.92629 6.36188L8.92613 10.89C9.05087 10.9517 9.16479 11.0332 9.26348 11.1313C9.38196 11.2497 9.47595 11.3903 9.54008 11.5451C9.6042 11.6999 9.63721 11.8658 9.63721 12.0334C9.63721 12.2009 9.6042 12.3668 9.54008 12.5216C9.47595 12.6764 9.38196 12.817 9.26348 12.9355C8.76504 13.4339 7.95723 13.4339 7.45957 12.9355C7.3109 12.7869 7.20123 12.6039 7.14034 12.4027C7.07944 12.2016 7.06919 11.9885 7.11051 11.7824C7.15182 11.5763 7.24342 11.3836 7.37715 11.2215C7.51089 11.0593 7.68262 10.9328 7.87707 10.853V6.28266C7.72064 6.21878 7.57866 6.12409 7.45957 6.00422C7.08207 5.62719 6.99129 5.07329 7.18473 4.60969L5.29754 2.72219L0.314102 7.70532C0.21452 7.80489 0.135526 7.92311 0.0816326 8.05322C0.0277388 8.18332 0 8.32277 0 8.4636C0 8.60443 0.0277388 8.74387 0.0816326 8.87398C0.135526 9.00409 0.21452 9.1223 0.314102 9.22188L7.58223 16.4897C7.78329 16.6907 8.05596 16.8036 8.34027 16.8036C8.62459 16.8036 8.89725 16.6907 9.09832 16.4897L16.3325 9.25579C16.5336 9.05461 16.6465 8.78184 16.6465 8.49743C16.6465 8.21301 16.5336 7.94024 16.3325 7.73907Z" fill="#DE4C36"/>
</g>
<defs>
<clipPath id="clip0_207_145">
<rect width="40" height="16.875" fill="white"/>
</clipPath>
</defs>
</svg>
