<svg width="29" height="40" viewBox="0 0 29 40" fill="none" xmlns="http://www.w3.org/2000/svg">
<g clip-path="url(#clip0_207_150)">
<path d="M28.3159 7.84106L25.7407 36.6898L14.1651 39.8989L2.62135 36.6943L0.0488281 7.84106H28.3159Z" fill="#E44D26"/>
<path d="M14.1826 37.446L23.5363 34.8528L25.7369 10.2002H14.1826V37.446Z" fill="#F16529"/>
<path d="M9.17694 17.2777H14.183V13.739H5.30957L5.39422 14.6884L6.26403 24.4402H14.183V20.9015H9.50037L9.17694 17.2777ZM9.9745 26.2096H6.42215L6.91788 31.7659L14.1667 33.7781L14.183 33.7737V30.0919L14.1675 30.096L10.2265 29.0319L9.9745 26.2096Z" fill="#EBEBEB"/>
<path d="M2.67969 0H4.47803V1.77673H6.12312V0H7.92157V5.38039H6.12323V3.57873H4.47814V5.38039H2.6798L2.67969 0ZM10.2863 1.78427H8.7034V0H13.6689V1.78427H12.085V5.38039H10.2867V1.78427H10.2863ZM14.457 0H16.3321L17.4856 1.89053L18.6379 0H20.5138V5.38039H18.7228V2.71357L17.4856 4.62659H17.4545L16.2165 2.71357V5.38039H14.457V0ZM21.4088 0H23.2077V3.60199H25.7366V5.38039H21.4087L21.4088 0Z" fill="black"/>
<path d="M14.171 24.4402H18.5286L18.1177 29.0297L14.1709 30.0949V33.7765L21.4255 31.7659L21.4787 31.168L22.3104 21.8517L22.3967 20.9015H14.171V24.4402ZM14.171 17.2691V17.2777H22.7187L22.7896 16.4824L22.951 14.6884L23.0355 13.739H14.171V17.2691Z" fill="white"/>
</g>
<defs>
<clipPath id="clip0_207_150">
<rect width="28.3657" height="40" fill="white"/>
</clipPath>
</defs>
</svg>
