<svg width="29" height="40" viewBox="0 0 29 40" fill="none" xmlns="http://www.w3.org/2000/svg">
<g clip-path="url(#clip0_207_156)">
<path d="M14.1651 39.8989L2.62135 36.6943L0.0488281 7.84106H28.3159L25.7407 36.6898L14.1651 39.8989Z" fill="#264DE4"/>
<path d="M23.5363 34.8528L25.7369 10.2002H14.1826V37.446L23.5363 34.8528Z" fill="#2965F1"/>
<path d="M5.94691 20.9015L6.26403 24.4402H14.183V20.9015H5.94691ZM5.30957 13.739L5.63123 17.2777H14.183V13.739H5.30957ZM14.183 30.0919L14.1675 30.096L10.2265 29.0319L9.9745 26.2096H6.42215L6.91788 31.7659L14.1667 33.7781L14.183 33.7737V30.0919Z" fill="#EBEBEB"/>
<path d="M6.70215 0H10.988V1.79235H8.4945V3.58471H10.9882V5.37695H6.70215V0ZM11.8453 0H16.1313V1.55856H13.6377V1.87025H16.1313V5.45496H11.8454V3.81828H14.339V3.50659H11.8452L11.8453 0ZM16.9886 0H21.2746V1.55856H18.7809V1.87025H21.2746V5.45496H16.9886V3.81828H19.4822V3.50659H16.9887L16.9886 0Z" fill="black"/>
<path d="M22.3967 20.9015L23.0355 13.739H14.171V17.2777H19.1574L18.8354 20.9015H14.171V24.4402H18.5286L18.1177 29.0297L14.1709 30.0949V33.7765L21.4255 31.7659L21.4787 31.168L22.3104 21.8517L22.3967 20.9015Z" fill="white"/>
</g>
<defs>
<clipPath id="clip0_207_156">
<rect width="28.3657" height="40" fill="white"/>
</clipPath>
</defs>
</svg>
