<svg width="40" height="25" viewBox="0 0 40 25" fill="none" xmlns="http://www.w3.org/2000/svg">
<g clip-path="url(#clip0_207_148)">
<path d="M20.0254 0C14.6852 0 11.3473 2.67008 10.0125 8.01023C12.0152 5.33977 14.3515 4.33864 17.0216 5.00644C18.5447 5.38712 19.6337 6.49242 20.839 7.71591C22.8023 9.70833 25.0746 12.0152 30.0379 12.0152C35.378 12.0152 38.7155 9.34507 40.0504 4.00492C38.0481 6.67538 35.7117 7.67651 33.0417 7.00871C31.5182 6.62803 30.4295 5.52273 29.2242 4.29924C27.2606 2.30682 24.9886 0 20.0254 0ZM10.0125 12.0152C4.67273 12.0152 1.33485 14.6852 0 20.0254C2.00265 17.3549 4.33864 16.3538 7.00871 17.0216C8.5322 17.4023 9.62121 18.5076 10.8261 19.7307C12.7898 21.7239 15.0621 24.0299 20.0254 24.0299C25.3652 24.0299 28.7027 21.3602 30.0379 16.0201C28.0352 18.6905 25.6989 19.6917 23.0292 19.0239C21.5057 18.6432 20.4167 17.5379 19.2114 16.3144C17.2481 14.322 14.9758 12.0152 10.0125 12.0152Z" fill="url(#paint0_linear_207_148)"/>
</g>
<defs>
<linearGradient id="paint0_linear_207_148" x1="-111.26" y1="768.957" x2="3347.72" y2="2763.37" gradientUnits="userSpaceOnUse">
<stop stop-color="#2298BD"/>
<stop offset="1" stop-color="#0ED7B5"/>
</linearGradient>
<clipPath id="clip0_207_148">
<rect width="40" height="24.2424" fill="white"/>
</clipPath>
</defs>
</svg>
