<svg width="46" height="46" viewBox="0 0 46 46" fill="none" xmlns="http://www.w3.org/2000/svg">
<path d="M19.7143 36.1428L16.4285 44.3571M26.2857 36.1428L29.5714 44.3571M13.1428 44.3571H32.8571M42.7143 6.57141H3.28568C2.84997 6.57141 2.4321 6.7445 2.124 7.05259C1.81591 7.36069 1.64282 7.77856 1.64282 8.21427V34.5C1.64282 34.9357 1.81591 35.3536 2.124 35.6617C2.4321 35.9698 2.84997 36.1428 3.28568 36.1428H42.7143C43.15 36.1428 43.5678 35.9698 43.8759 35.6617C44.184 35.3536 44.3571 34.9357 44.3571 34.5V8.21427C44.3571 7.77856 44.184 7.36069 43.8759 7.05259C43.5678 6.7445 43.15 6.57141 42.7143 6.57141Z" stroke="#F0F0F0" stroke-width="3" stroke-linecap="round" stroke-linejoin="round"/>
<path d="M14.7856 17.25L9.03564 22.1786L13.9642 26.2857M32.0356 18.0714L36.9642 22.1786L31.2142 27.1072M20.5356 28.75L25.4642 13.9643" stroke="#F0F0F0" stroke-width="3" stroke-linecap="round" stroke-linejoin="round"/>
</svg>
