<svg width="46" height="46" viewBox="0 0 46 46" fill="none" xmlns="http://www.w3.org/2000/svg">
<path d="M6.31732 39.487L18.515 27.2893M33.8752 21.8651L30.2239 32.8189C30.1656 32.9945 30.0659 33.1534 29.9331 33.2822C29.8003 33.411 29.6384 33.5059 29.4611 33.5587L7.07824 40.2115C6.87659 40.2714 6.66237 40.2748 6.45891 40.2214C6.25544 40.168 6.07052 40.0598 5.92426 39.9086C5.77801 39.7574 5.67603 39.569 5.62942 39.3639C5.58281 39.1588 5.59335 38.9448 5.6599 38.7452L12.9279 16.9451C12.98 16.7885 13.0651 16.645 13.1776 16.5243C13.29 16.4036 13.4271 16.3085 13.5796 16.2455L23.9047 11.9943C24.1146 11.9076 24.3454 11.885 24.5682 11.9294C24.7909 11.9737 24.9955 12.083 25.1562 12.2435L33.5972 20.6883C33.7483 20.8393 33.8543 21.0294 33.9034 21.2373C33.9524 21.4451 33.9427 21.6625 33.8752 21.8651Z" stroke="white" stroke-width="2.875" stroke-linecap="round" stroke-linejoin="round"/>
<path d="M34.1014 21.1906L39.5218 15.7684C40.2404 15.0495 40.6441 14.0747 40.6441 13.0582C40.6441 12.0418 40.2404 11.0669 39.5218 10.3481L35.4584 6.2809C35.1025 5.92478 34.6798 5.64228 34.2146 5.44954C33.7494 5.2568 33.2508 5.15759 32.7473 5.15759C32.2438 5.15759 31.7452 5.2568 31.28 5.44954C30.8148 5.64228 30.3922 5.92478 30.0362 6.2809L24.6159 11.7031M22.5804 23.2223C22.3133 22.9554 21.9963 22.7437 21.6474 22.5993C21.2985 22.4548 20.9246 22.3806 20.5471 22.3807C20.1695 22.3807 19.7956 22.4552 19.4468 22.5998C19.098 22.7444 18.7811 22.9562 18.5141 23.2233C18.2472 23.4903 18.0355 23.8073 17.8911 24.1562C17.7467 24.5051 17.6724 24.879 17.6725 25.2566C17.6726 25.6342 17.747 26.008 17.8916 26.3568C18.0362 26.7056 18.248 27.0226 18.5151 27.2895C19.0544 27.8286 19.7858 28.1313 20.5484 28.1311C21.311 28.131 22.0422 27.8279 22.5813 27.2885C23.1204 26.7492 23.4232 26.0178 23.423 25.2552C23.4228 24.4927 23.1197 23.7614 22.5804 23.2223Z" stroke="white" stroke-width="2.875" stroke-linecap="round" stroke-linejoin="round"/>
</svg>
