<svg width="40" height="40" viewBox="0 0 40 40" fill="none" xmlns="http://www.w3.org/2000/svg">
<g clip-path="url(#clip0_207_169)">
<path d="M30.625 0H9.375C4.19733 0 0 4.19733 0 9.375V30.625C0 35.8027 4.19733 40 9.375 40H30.625C35.8027 40 40 35.8027 40 30.625V9.375C40 4.19733 35.8027 0 30.625 0Z" fill="#330000"/>
<path d="M19.3331 23.8021H13.1331L11.8664 27.7188C11.8331 27.8688 11.6998 27.9688 11.5498 27.9521H8.41639C8.2331 27.9521 8.1831 27.8521 8.2331 27.6521L13.5998 12.2021C13.6498 12.0355 13.6998 11.8521 13.7664 11.6521C13.8331 11.3021 13.8664 10.9355 13.8664 10.5688C13.8498 10.4855 13.9164 10.4021 13.9998 10.3855H18.3164C18.4498 10.3855 18.5164 10.4355 18.5331 10.5188L24.6164 27.6855C24.6664 27.8688 24.6164 27.9521 24.4498 27.9521H20.9664C20.8498 27.9688 20.7331 27.8855 20.6998 27.7688L19.3331 23.8021ZM14.0998 20.4188H18.3331C18.2331 20.0688 18.0998 19.6521 17.9498 19.2188C17.7998 18.7688 17.6498 18.2855 17.4998 17.7855C17.3331 17.2688 17.1831 16.7688 17.0164 16.2521C16.8498 15.7355 16.6998 15.2521 16.5664 14.7688C16.4331 14.3022 16.3164 13.8688 16.1998 13.4688H16.1664C16.0164 14.1855 15.8331 14.9022 15.5998 15.6188C15.3498 16.4188 15.0998 17.2521 14.8331 18.0855C14.6179 18.8721 14.3733 19.6504 14.0998 20.4188ZM28.3331 13.3021C27.7831 13.3188 27.2498 13.1021 26.8498 12.7188C26.4665 12.3021 26.2665 11.7521 26.2831 11.1855C26.2665 10.6188 26.4831 10.0855 26.8831 9.70206C27.2831 9.31877 27.8165 9.11877 28.3665 9.11877C29.0165 9.11877 29.5165 9.31877 29.8831 9.70206C30.2525 10.1061 30.4498 10.6383 30.4331 11.1855C30.4498 11.7521 30.2498 12.3021 29.8498 12.7188C29.4665 13.1188 28.8998 13.3355 28.3331 13.3021ZM26.4665 27.7688V14.9355C26.4665 14.7688 26.5331 14.7021 26.6831 14.7021H29.9831C30.1331 14.7021 30.1998 14.7855 30.1998 14.9355V27.7688C30.1998 27.9521 30.1331 28.0355 29.9831 28.0355H26.7165C26.5498 28.0355 26.4665 27.9355 26.4665 27.7688Z" fill="#FF9A00"/>
</g>
<defs>
<clipPath id="clip0_207_169">
<rect width="40" height="40" fill="white"/>
</clipPath>
</defs>
</svg>
