<svg width="40" height="40" viewBox="0 0 40 40" fill="none" xmlns="http://www.w3.org/2000/svg">
<path d="M37.3545 7.6825L20.927 37.0575C20.8499 37.1957 20.7374 37.3108 20.6011 37.3912C20.4648 37.4716 20.3096 37.5143 20.1514 37.5149C19.9931 37.5155 19.8376 37.4741 19.7006 37.3948C19.5637 37.3155 19.4503 37.2013 19.372 37.0637L2.61953 7.685C2.5353 7.53759 2.49487 7.36922 2.50297 7.19964C2.51107 7.03006 2.56738 6.8663 2.66527 6.7276C2.76317 6.58889 2.89859 6.48098 3.05566 6.41653C3.21273 6.35209 3.38492 6.33378 3.55203 6.36375L19.997 9.30375C20.1016 9.32258 20.2087 9.32258 20.3133 9.30375L36.4145 6.36875C36.581 6.33833 36.7527 6.35587 36.9095 6.41931C37.0664 6.48274 37.202 6.58947 37.3006 6.72705C37.3991 6.86462 37.4565 7.02737 37.466 7.19632C37.4756 7.36526 37.4369 7.5347 37.3545 7.6825Z" fill="url(#paint0_linear_207_94)"/>
<path d="M27.8297 2.50874L15.6747 4.88999C15.5774 4.90899 15.4892 4.95985 15.424 5.03455C15.3588 5.10924 15.3204 5.20352 15.3147 5.30249L14.5672 17.9325C14.5631 18.0018 14.5752 18.0711 14.6025 18.1349C14.6299 18.1987 14.6717 18.2552 14.7248 18.3C14.7778 18.3448 14.8405 18.3766 14.908 18.3928C14.9755 18.4091 15.0458 18.4094 15.1134 18.3937L18.4972 17.6125C18.5701 17.5957 18.6461 17.5974 18.7181 17.6176C18.7901 17.6378 18.8559 17.6758 18.9095 17.7281C18.963 17.7803 19.0025 17.8452 19.0244 17.9168C19.0463 17.9883 19.0498 18.0642 19.0347 18.1375L18.0297 23.0612C18.0142 23.137 18.0187 23.2156 18.0427 23.2891C18.0667 23.3627 18.1094 23.4287 18.1666 23.4808C18.2238 23.5329 18.2936 23.5691 18.3691 23.5861C18.4446 23.6031 18.5232 23.6001 18.5972 23.5775L20.6872 22.9425C20.7613 22.9198 20.8401 22.9168 20.9157 22.9338C20.9913 22.9508 21.0612 22.9872 21.1185 23.0395C21.1757 23.0917 21.2184 23.1579 21.2423 23.2317C21.2662 23.3054 21.2705 23.3841 21.2547 23.46L19.6559 31.1937C19.5559 31.6775 20.1997 31.9412 20.4684 31.5275L20.6472 31.25L30.5534 11.4812C30.5906 11.4068 30.6062 11.3234 30.5985 11.2405C30.5908 11.1576 30.56 11.0785 30.5097 11.0122C30.4593 10.9458 30.3915 10.8949 30.3137 10.8652C30.236 10.8354 30.1514 10.828 30.0697 10.8437L26.5859 11.515C26.511 11.5293 26.4335 11.5242 26.3611 11.5001C26.2887 11.476 26.2236 11.4337 26.1722 11.3772C26.1208 11.3208 26.0847 11.2521 26.0674 11.1778C26.0501 11.1034 26.0522 11.0258 26.0734 10.9525L28.3459 3.06999C28.3674 2.99642 28.3695 2.91858 28.3521 2.84395C28.3347 2.76933 28.2984 2.70045 28.2466 2.64393C28.1949 2.58741 28.1294 2.54518 28.0566 2.52128C27.9838 2.49738 27.9061 2.49264 27.8309 2.50749" fill="url(#paint1_linear_207_94)"/>
<defs>
<linearGradient id="paint0_linear_207_94" x1="2.21018" y1="5.31358" x2="22.6542" y2="33.0781" gradientUnits="userSpaceOnUse">
<stop stop-color="#41D1FF"/>
<stop offset="1" stop-color="#BD34FE"/>
</linearGradient>
<linearGradient id="paint1_linear_207_94" x1="19.0522" y1="3.15472" x2="22.7504" y2="28.5241" gradientUnits="userSpaceOnUse">
<stop stop-color="#FFEA83"/>
<stop offset="0.083" stop-color="#FFDD35"/>
<stop offset="1" stop-color="#FFA800"/>
</linearGradient>
</defs>
</svg>
