<svg width="40" height="40" viewBox="0 0 40 40" fill="none" xmlns="http://www.w3.org/2000/svg">
<path d="M2.5 2.5H37.5V37.5H2.5V2.5Z" fill="#F5DE19"/>
<path d="M26.0111 29.8438C26.3093 30.4495 26.7726 30.9586 27.3476 31.3125C27.9227 31.6664 28.586 31.8505 29.2611 31.8438C30.6236 31.8438 31.4948 31.1625 31.4948 30.2188C31.4948 29.0938 30.5998 28.6913 29.0998 28.035L28.2773 27.6825C25.9023 26.6713 24.3273 25.405 24.3273 22.7275C24.3273 20.2613 26.2023 18.3825 29.1436 18.3825C30.0957 18.3137 31.047 18.5268 31.8788 18.9952C32.7107 19.4636 33.3862 20.1665 33.8211 21.0163L31.2498 22.66C31.0824 22.2387 30.7908 21.8782 30.4137 21.6263C30.0367 21.3745 29.592 21.2433 29.1386 21.25C28.9408 21.2302 28.741 21.2518 28.5521 21.3135C28.3631 21.3751 28.189 21.4755 28.041 21.6081C27.8929 21.7408 27.7741 21.9028 27.6921 22.0839C27.6102 22.265 27.5668 22.4612 27.5648 22.66C27.5648 23.6463 28.1761 24.0463 29.5873 24.66L30.4098 25.0125C33.2048 26.2113 34.7848 27.4325 34.7848 30.1788C34.7848 33.14 32.4586 34.7625 29.3348 34.7625C28.1177 34.84 26.9042 34.5637 25.8406 33.9668C24.7771 33.37 23.909 32.4781 23.3411 31.3988L26.0111 29.8438ZM14.3923 30.1288C14.9086 31.045 15.3786 31.82 16.5086 31.82C17.5886 31.82 18.2711 31.3975 18.2711 29.7537V18.57H21.5598V29.7975C21.5598 33.2025 19.5598 34.7525 16.6486 34.7525C15.6195 34.8088 14.5975 34.5523 13.717 34.0169C12.8364 33.4814 12.1384 32.692 11.7148 31.7525L14.3923 30.1288Z" fill="black"/>
</svg>
